<svg xmlns="http://www.w3.org/2000/svg" viewBox="0 0 202.71 204.44"><defs><style>.cls-1,.cls-13,.cls-15{isolation:isolate;}.cls-10,.cls-2,.cls-3,.cls-8{fill:#fff;}.cls-10,.cls-11,.cls-12,.cls-2,.cls-7,.cls-9{stroke:#424242;}.cls-10,.cls-12,.cls-2,.cls-7{stroke-linecap:square;}.cls-10,.cls-11,.cls-12,.cls-2,.cls-7,.cls-8{stroke-miterlimit:10;}.cls-2,.cls-7{stroke-width:1.11px;}.cls-13,.cls-4{opacity:0.1;}.cls-13,.cls-5{fill:#231f20;}.cls-15,.cls-6{fill:#0091ff;}.cls-11,.cls-12,.cls-7,.cls-9{fill:none;}.cls-8{stroke:#231f20;stroke-width:0.47px;}.cls-11,.cls-9{stroke-linecap:round;}.cls-9{stroke-linejoin:round;stroke-width:1.26px;}.cls-10,.cls-11,.cls-12{stroke-width:1.15px;}.cls-14,.cls-15{opacity:0.5;}.cls-14{mix-blend-mode:multiply;}</style></defs><title>1_what_is_bitcoin</title><g class="cls-1"><g id="Layer_1" data-name="Layer 1"><ellipse class="cls-2" cx="139.19" cy="74.89" rx="21.94" ry="16.61" transform="translate(-18.53 64.46) rotate(-24.5)"/><path class="cls-3" d="M159.94,72.94l1-2.4,2.47,5s2.85,17.83-19.45,24c0,0-15.42,3.51-21.69-9.07l-2-3.5s8.13,8.58,22.79,4.18C143.12,91.13,157.18,87.35,159.94,72.94Z"/><g class="cls-4"><path class="cls-5" d="M122.65,66.59c-4.55,5.26-6.19,11.83-3.68,17.35,3.81,8.36,15.73,11.1,26.63,6.13C152.8,86.79,157.74,81,159.19,75a26.74,26.74,0,0,1-9.14,6.78c-10.91,5-22.84,2.22-26.64-6.12A13.73,13.73,0,0,1,122.65,66.59Z"/></g><path class="cls-6" d="M161,70.55s-.3,13.75-18.72,21.18c0,0-15.71,2.93-22.24-6.08L123.26,93s9.21,14,27.57,4.55S162.25,73.51,161,70.55Z"/><ellipse class="cls-7" cx="139.19" cy="74.89" rx="21.94" ry="16.61" transform="translate(-18.53 64.46) rotate(-24.5)"/><path class="cls-7" d="M158.89,65.25c.83,1.64,3,6.61,3.57,7.92,3.84,8.36-1.92,19.39-12.94,24.41s-22.44,2.61-26.47-5.63c-1.33-2.73-3.26-6.59-4.15-8.73"/><path class="cls-6" d="M128.31,77.86l-3,1.34,1.11,2.42,2.93-1.34,1.19,2.61c.1.22.44.26.72.12l19.25-8.77c.29-.13.48-.41.38-.63L149.75,71l3.19-1.45-1.11-2.41-3.22,1.46c-1.25-2.05-4.22-2.67-7.09-1.36a6.44,6.44,0,0,0-3.62,4.31A5.64,5.64,0,0,0,132,71.1C128.82,72.55,127.34,75.45,128.31,77.86Zm13.08-2.57-1-2.15c-.46-1,.38-2.26,1.84-2.91s2.8-.43,3.26.6l1,2.15Zm-7.66-1.61a2.59,2.59,0,0,1,3.46.89l1,2.18L133,79.11l-1.11-2.42c-.45-1,.32-2.29,1.83-3Z"/><ellipse class="cls-2" cx="52.04" cy="160.49" rx="16.61" ry="21.93" transform="translate(-70.72 44.75) rotate(-28.72)"/><path class="cls-3" d="M55.56,181l2.47.84L53.2,184.7s-17.6,4.16-25.35-17.6c0,0-4.64-15.15,7.45-22.28l3.32-2.25s-8,8.74-2.5,23C36.16,165.61,41,179.37,55.56,181Z"/><g class="cls-4"><path class="cls-5" d="M59.13,143.38c-5.58-4.14-12.26-5.3-17.57-2.4-8,4.46-9.91,16.51-4.15,27,3.81,6.93,10,11.44,16,12.48A26.74,26.74,0,0,1,46,171.83c-5.75-10.52-3.9-22.61,4.15-27A13.73,13.73,0,0,1,59.13,143.38Z"/></g><path class="cls-6" d="M58,181.87s-13.73.71-22.51-17.11c0,0-4.08-15.45,4.46-22.62l-7.05,3.81s-13.37,10.22-2.5,27.83S55.14,183.39,58,181.87Z"/><ellipse class="cls-7" cx="52.04" cy="160.49" rx="16.61" ry="21.93" transform="translate(-70.72 44.75) rotate(-28.72)"/><path class="cls-7" d="M63.12,179.43c-1.57,1-6.37,3.49-7.63,4.18-8,4.41-19.47-.53-25.29-11.15s-4.25-22.2,3.67-26.81c2.62-1.52,6.33-3.74,8.4-4.79"/><path class="cls-6" d="M48.3,149.85,46.75,147l-2.33,1.27L46,151.12l-2.52,1.38c-.21.12-.23.45-.07.73l10.17,18.56c.15.28.45.45.66.33l2.52-1.38,1.68,3.08,2.32-1.27L59,169.44c2-1.4,2.34-4.4.83-7.13A6.44,6.44,0,0,0,55.31,159a5.64,5.64,0,0,0,0-5.95C53.63,150,50.63,148.71,48.3,149.85Zm3.51,12.86,2.07-1.13c1-.54,2.27.21,3,1.61s.63,2.75-.36,3.3l-2.07,1.13ZM52.86,155a2.59,2.59,0,0,1-.63,3.51l-2.1,1.16-2.74-5,2.34-1.28c1-.5,2.34.16,3.16,1.62Z"/><circle class="cls-8" cx="97.85" cy="105.76" r="32.18"/><g class="cls-4"><path class="cls-5" d="M98.27,137.22c-18.33,0-33.18-13.91-33.18-31.08,0-11.33,6.45-21.22,16.11-26.66a29.5,29.5,0,0,0-4.72,16c0,17.17,14.85,31.1,33.18,31.1,6.24,0,10.86-.89,15.85-3.69C119.69,131.92,110.36,137.22,98.27,137.22Z"/></g><circle class="cls-9" cx="97.85" cy="105.76" r="32.18"/><path class="cls-6" d="M110.83,113.71c0-4.25-3.57-6.75-6-7.54,2.17-1,5.09-3.79,5.09-7.35,0-4.56-3.75-8.1-8.76-8.51V85.18h-5.6v5.07h-6a.89.89,0,0,0-.89.89v30.62a.89.89,0,0,0,.89.89h6v4.67h5.56v-4.71C106.56,122.44,110.83,118.76,110.83,113.71ZM94.61,95.79h4.95a3.78,3.78,0,0,1,4,3.57q0,.18,0,.37a4,4,0,0,1-3.84,4.09H94.61Zm5.6,21.39h-5.6v-8.24h5c2.41,0,4.72,1.71,4.72,4a4.13,4.13,0,0,1-4,4.22Z"/><path class="cls-10" d="M157,153.92c1.11,2.2-8.14,9.07-20.64,15.34s-23.53,9.57-24.63,7.37,8.13-9.07,20.63-15.35S155.93,151.71,157,153.92Z"/><path class="cls-11" d="M111.89,176.91l4.82,9.62c1.11,2.2,12.13-1.1,24.64-7.37S163.09,166,162,163.81L157,154"/><path class="cls-12" d="M157,153.92c1.11,2.2-8.14,9.07-20.64,15.34s-23.53,9.57-24.63,7.37,8.13-9.07,20.63-15.35S155.93,151.71,157,153.92Z"/><path class="cls-13" d="M125.09,174.12s-12.71.54,18.13-16.38l3.44-2.5s-33.87,13.58-34.76,20.37-.12,1-.12,1S115.56,179.18,125.09,174.12Z"/><path class="cls-6" d="M156.4,155.51S143,169.09,112.81,178.09l4.46,9.42s28.93-6.36,45.09-23.35l-5.23-9.75Z"/><path class="cls-6" d="M131.55,169.4c2.4-1.23,3.49-2.54,3.73-3.17a10,10,0,0,0,4.56-1.27c2.57-1.32,4.23-3,4-3.91l2.88-1.48-.48-.89-2.85,1.46-.5-1.05c0-.09-.31,0-.57.11L125.09,168c-.26.13-.46.32-.42.4l.52,1-2.62,1.35.47.89,2.67-1.35C126.27,171.22,128.66,170.86,131.55,169.4Zm8.71-7.87.42.82c.21.39-.57,1.13-1.87,1.78s-2.48.89-2.67.53l-.42-.82Zm-11.59,7.13-.48-.89,4.63-2.37.43.84c.21.4-.56,1.27-1.85,1.94s-2.5.85-2.73.46Z"/><path class="cls-12" d="M157,153.92c1.11,2.2-8.14,9.07-20.64,15.34s-23.53,9.57-24.63,7.37,8.13-9.07,20.63-15.35S155.93,151.71,157,153.92Z"/><path class="cls-12" d="M111.89,176.91l4.82,9.62c1.11,2.2,12.13-1.1,24.64-7.37S163.09,166,162,163.81l-4-7.88"/><path class="cls-10" d="M116.72,51.55c-1.93,1.53-10.55-6.11-19.24-17.07S83.3,13.41,85.24,11.87,95.77,18,104.47,28.94,118.65,50,116.72,51.55Z"/><path class="cls-11" d="M85,12,76.6,18.73c-1.93,1.53,3.57,11.66,12.25,22.61s17.31,18.59,19.24,17.06l8.64-6.85"/><path class="cls-12" d="M116.72,51.55c-1.93,1.53-10.55-6.11-19.24-17.07S83.3,13.41,85.24,11.87,95.77,18,104.47,28.94,118.65,50,116.72,51.55Z"/><path class="cls-13" d="M90.41,24.37S87.28,12,110.15,38.74l3.15,2.85s-20.21-30.39-27-29.81-1,.1-1,.1S83.53,16.11,90.41,24.37Z"/><path class="cls-6" d="M115,51.22S99,40.85,84,13.16l-8.31,6.33s12.14,27,32.09,39.36l8.48-7.13Z"/><path class="cls-6" d="M96.35,29.76c1.69,2.09,3.2,2.9,3.87,3a10,10,0,0,0,2.18,4.2c1.78,2.24,3.76,3.57,4.65,3.16l2,2.51.8-.66-2-2.49.89-.71c.08-.06,0-.3-.22-.53l-12.17-15c-.19-.23-.4-.39-.48-.33l-.89.71-1.85-2.29-.81.65,1.85,2.3C93.49,25,94.35,27.27,96.35,29.76Zm9.48,6.91-.72.59c-.35.28-1.22-.33-2.15-1.46s-1.42-2.24-1.07-2.51l.71-.58Zm-9.32-9.86.81-.66,3.27,4-.73.59c-.35.29-1.36-.29-2.28-1.42S96.18,27.08,96.51,26.81Z"/><path class="cls-12" d="M116.72,51.55c-1.93,1.53-10.55-6.11-19.24-17.07S83.3,13.41,85.24,11.87,95.77,18,104.47,28.94,118.65,50,116.72,51.55Z"/><path class="cls-12" d="M85,12,76.6,18.73c-1.93,1.53,3.57,11.66,12.25,22.61s17.31,18.59,19.24,17.06l6.9-5.49"/><path class="cls-10" d="M90.24,21.69c1.11,2.2-8.13,9-20.64,15.34S46.07,46.6,45,44.4s8.14-9.07,20.63-15.35S89.13,19.49,90.24,21.69Z"/><path class="cls-11" d="M45.09,44.64l4.82,9.61c1.11,2.2,12.14-1.1,24.64-7.37S96.29,33.74,95.19,31.54l-4.95-9.85"/><path class="cls-12" d="M90.24,21.69c1.11,2.2-8.13,9-20.64,15.34S46.07,46.6,45,44.4s8.14-9.07,20.63-15.35S89.13,19.49,90.24,21.69Z"/><path class="cls-13" d="M58.24,41.89s-12.71.54,18.13-16.38L79.81,23S45.94,36.58,45,43.38s-.12,1-.12,1S48.77,46.94,58.24,41.89Z"/><path class="cls-6" d="M89.61,23.28S76.17,36.86,46,45.87l4.46,9.42s28.93-6.36,45.09-23.35l-5.22-9.77Z"/><path class="cls-6" d="M64.74,37.17c2.4-1.23,3.49-2.54,3.73-3.17A10,10,0,0,0,73,32.72c2.57-1.32,4.23-3,4-3.91L80,27.33l-.48-.89L76.62,27.9l-.55-1c0-.09-.31,0-.57.11L58.33,35.81c-.26.13-.46.31-.42.4l.52,1L55.8,38.56l.47.89L59,38.11C59.47,39,61.9,38.63,64.74,37.17Zm8.7-7.87.43.83c.2.39-.57,1.13-1.87,1.78s-2.48.89-2.67.53l-.39-.84ZM61.86,36.43l-.48-.89L66,33.17l.43.84c.21.4-.56,1.27-1.85,1.94s-2.49.85-2.68.45Z"/><path class="cls-12" d="M90.24,21.69c1.11,2.2-8.13,9-20.64,15.34S46.07,46.6,45,44.4s8.14-9.07,20.63-15.35S89.13,19.49,90.24,21.69Z"/><path class="cls-12" d="M45.09,44.64l4.82,9.61c1.11,2.2,12.14-1.1,24.64-7.37S96.29,33.74,95.19,31.54l-4-7.88"/><path class="cls-10" d="M161.46,140.46c-2-1.43,2.9-11.84,11-23.27s16.23-19.54,18.24-18.12-2.89,11.84-10.95,23.27S163.47,141.87,161.46,140.46Z"/><path class="cls-11" d="M190.45,98.91l-8.79-6.24c-2-1.34-10.22,6.73-18.24,18.17s-13,21.84-11,23.28l9,6.36"/><path class="cls-12" d="M161.46,140.46c-2-1.43,2.9-11.84,11-23.27s16.23-19.54,18.24-18.12-2.89,11.84-10.95,23.27S163.47,141.87,161.46,140.46Z"/><path class="cls-13" d="M180.13,107.55s10.95-6.48-8.25,23L170,134.37s23.49-28,21-34.34-.38-1-.38-1S186.12,98.62,180.13,107.55Z"/><path class="cls-6" d="M161.28,138.74s5.44-18.3,27.78-40.47L180.69,92s-22.5,19.25-28.73,41.89l9.22,6.13Z"/><path class="cls-6" d="M176.64,114.77c-1.53,2.21-1.88,3.89-1.78,4.55a10,10,0,0,0-3.42,3.28c-1.64,2.37-2.34,4.61-1.71,5.35l-1.84,2.67.89.59,1.78-2.67.89.64c.08.05.29-.12.45-.37l11-15.9c.17-.24.26-.5.18-.55l-.89-.64,1.68-2.42-.89-.59-1.68,2.43C180.44,110.68,178.46,112.14,176.64,114.77Zm-4,11-.77-.53c-.37-.25,0-1.27.8-2.47s1.78-2,2.11-1.74l.76.53Zm6.84-11.72.89.6-3,4.28-.78-.53c-.37-.25-.11-1.39.72-2.59s1.8-2,2.15-1.74Z"/><path class="cls-12" d="M161.46,140.46c-2-1.43,2.9-11.84,11-23.27s16.23-19.54,18.24-18.12-2.89,11.84-10.95,23.27S163.47,141.87,161.46,140.46Z"/><path class="cls-12" d="M190.45,98.91l-8.79-6.24c-2-1.34-10.22,6.73-18.24,18.17s-13,21.84-11,23.28l7.21,5.07"/><path class="cls-10" d="M82.54,188.26c-2.26,1-8.66-8.58-14.26-21.39s-8.37-24-6.11-25,8.66,8.58,14.26,21.39S84.79,187.26,82.54,188.26Z"/><path class="cls-11" d="M61.89,142l-9.81,4.33c-2.26,1,.48,12.18,6.11,25s12,22.37,14.26,21.39l10.09-4.46"/><path class="cls-12" d="M82.54,188.26c-2.26,1-8.66-8.58-14.26-21.39s-8.37-24-6.11-25,8.66,8.58,14.26,21.39S84.79,187.26,82.54,188.26Z"/><path class="cls-13" d="M64,155.3s.1-12.72,15.45,18.93l2.33,3.57s-11.85-34.55-18.59-35.73-1-.17-1-.17S59.41,145.56,64,155.3Z"/><path class="cls-6" d="M81,187.54S68.1,173.45,60.63,142.86l-9.64,4S55.88,176,72,193l10-4.73Z"/><path class="cls-6" d="M68.36,162c1.11,2.45,2.36,3.61,3,3.89a10,10,0,0,0,1,4.63c1.19,2.63,2.75,4.38,3.71,4.23l1.33,3,.94-.43-1.32-2.92,1-.46c.09,0,0-.3-.08-.57l-8-17.63c-.12-.27-.29-.48-.37-.44l-1,.46L67.44,153l-.94.43,1.21,2.67C66.81,156.65,67,159.08,68.36,162Zm7.43,9.09-.85.38c-.4.18-1.1-.62-1.7-2s-.8-2.52-.4-2.67l.84-.38Zm-6.52-11.9,1-.43,2.14,4.74-.89.38c-.41.19-1.24-.62-1.85-2s-.76-2.57-.37-2.75Z"/><path class="cls-12" d="M82.54,188.26c-2.26,1-8.66-8.58-14.26-21.39s-8.37-24-6.11-25,8.66,8.58,14.26,21.39S84.79,187.26,82.54,188.26Z"/><path class="cls-12" d="M61.89,142l-9.81,4.33c-2.26,1,.48,12.18,6.11,25s12,22.37,14.26,21.39l8.07-3.57"/><path class="cls-2" d="M51.59,87.11C57.11,97.88,55,110,46.8,114.2S27.54,113,22,102.24s-3.38-22.91,4.79-27.09S46.07,76.32,51.59,87.11Z"/><path class="cls-3" d="M21.76,80.25l.7-2.5L17.4,80.15S4.1,92.36,17.77,111c0,0,9.9,12.33,22.63,6.36l3.7-1.53S32.4,117.51,23.6,105C23.64,104.94,15,93.25,21.76,80.25Z"/><g class="cls-4"><path class="cls-5" d="M47.05,114.3c-8.17,4.18-19.23-1.07-24.69-11.73-3.57-7-3.87-14.66-1.29-20.24a26.74,26.74,0,0,0,3,11c5.46,10.7,16.52,15.93,24.69,11.75A13.75,13.75,0,0,0,55,98.42C55.22,105.37,52.43,111.54,47.05,114.3Z"/></g><path class="cls-6" d="M22.46,77.75S14.16,88.71,24,106c0,0,10.49,12.05,21.21,9l-7.13,3.7S22.14,124,13.67,105.16,19.6,79.25,22.46,77.75Z"/><g class="cls-14"><path class="cls-15" d="M132,92.82s18,6,29.36-6.6l-8.59,9.95s-13.63,8.09-23.72,2c-1.88-1.13-2.52-7.53-2.52-7.53Z"/><path class="cls-15" d="M33.64,154.62S29,173,42.38,183.42l-10.55-7.87s-12.76-18.28.89-29l4.37-2.73Z"/><path class="cls-15" d="M128,184.17s24.55-12.17,18.66-19.61l1.86-1.68,3.38-2.26s2.74-2.36,2.91-2.59,2.67-2.56,2.67-2.56l3.65,6.47.89,2.48-1.23,2.22-9,6.93-16.42,8.91Z"/><path class="cls-15" d="M81.16,29.27s16.94,21.54,23,14.26l2,1.45,2.9,2.84s2.87,2.2,3.13,2.32,3,2.15,3,2.15l-5.59,4.89-2.24,1.41L105,57.8l-8.58-7.47L84.29,36.07Z"/><path class="cls-15" d="M88,38.12S62.08,51.49,59.49,42.32L57,42.83l-3.81,1.4s-3.57.83-3.81.83-3.66.69-3.66.69l3.08,6.76,1.46,2.2,2.58.29,10.91-3.23,16.94-8Z"/><path class="cls-15" d="M155.67,124.92s16.56-24.07,23.18-17.17l1.93-1.61,2.67-3s2.67-2.39,3-2.52,2.91-2.34,2.91-2.34l-5.91-4.46-2.33-1.26-2.41,1-8.09,8-11.12,15Z"/><path class="cls-15" d="M66.26,185.21s-12-26.59-2.76-28.69L63.1,154l-1.22-3.87s-.65-3.57-.63-3.84-.5-3.69-.5-3.69l-6.91,2.75-2.27,1.35-.42,2.55,2.67,11.06L61,177.62Z"/><path class="cls-15" d="M11.89,94.35c-.21.29,3.48,12.35,16.66,16.78l4.73,3.12s5.15,1.32,5.51,1.32,2.88.6,2.88.6l-1.26,1.56-4.55,1.68-4,.12-6.11-1.68-5.63-4.67-3.48-4.46-4.31-7.31s-1-3.94-1-4.3S12.22,93.87,11.89,94.35Z"/></g><path class="cls-7" d="M51.59,87.11C57.11,97.88,55,110,46.8,114.2S27.54,113,22,102.24s-3.38-22.91,4.79-27.09S46.07,76.32,51.59,87.11Z"/><path class="cls-7" d="M27.35,74.88c-1.68.77-6.47,3.32-7.75,4C11.44,83,9.11,95.25,14.63,106s16,16,24.25,12c2.74-1.31,6.65-3.14,8.67-4.26"/><path class="cls-6" d="M44.8,96.16a5.64,5.64,0,0,0-4.92-3.33,6.43,6.43,0,0,0-.16-5.62c-1.44-2.8-4.14-4.16-6.4-3.33l-1.61-3.15-2.35,1.2L31,85l-2.56,1.31c-.21.12-.24.45-.09.73l9.64,18.83c.14.29.44.46.65.35L41.16,105l1.47,2.87,2.36-1.2-1.48-2.88C45.76,102.46,46.4,99.27,44.8,96.16ZM32.28,88.66l2.09-1.08c1-.52,2.19.13,2.92,1.56s.62,2.91-.37,3.42l-2.1,1.07Zm9.12,12L39,101.82l-2.59-5.06,2.14-1.1a2.59,2.59,0,0,1,3.26,1.45c.77,1.46.54,3-.43,3.48Z"/></g></g></svg>